<svg width="72" height="71" viewBox="0 0 72 71" fill="none" xmlns="http://www.w3.org/2000/svg">
<path d="M22.5189 15.8271C24.4092 15.8271 26.1576 15.9751 27.7551 16.4129C29.3556 16.7058 30.6661 17.2915 31.8287 18.0222C32.9943 18.7529 33.867 19.7795 34.4469 21.0959C35.0296 22.4124 35.3225 24.0247 35.3225 25.779C35.3225 27.8291 34.8847 29.5834 33.867 30.8999C32.9943 32.2193 31.5388 33.3878 29.7934 34.2664C32.2666 35.0001 34.1569 36.3166 35.3225 38.0709C36.4851 39.8281 37.2129 42.0232 37.2129 44.5111C37.2129 46.5613 36.7751 48.3156 36.0473 49.7799C35.3225 51.2443 34.1569 52.5608 32.8464 53.4394C31.4228 54.3812 29.8491 55.0735 28.1929 55.4866C26.4475 55.9274 24.7021 56.2202 22.9567 56.2202H3.45831V15.8271H22.5189ZM21.3533 32.2163C22.9537 32.2163 24.2643 31.7785 25.2819 31.0478C26.2996 30.3171 26.7374 28.9976 26.7374 27.3883C26.7374 26.5097 26.5895 25.6311 26.2996 25.0483C26.0097 24.4625 25.5719 24.0217 24.992 23.5839C24.3989 23.2515 23.7614 23.0054 23.0987 22.8532C22.3709 22.7053 21.6461 22.7053 20.7705 22.7053H12.3333V32.2193L21.3533 32.2163ZM21.7911 49.4871C22.6638 49.4871 23.5365 49.3391 24.2643 49.1942C24.992 49.0463 25.7198 48.7564 26.2996 48.3156C26.8924 47.8873 27.3883 47.3389 27.7551 46.7062C28.045 45.9755 28.3379 45.0969 28.3379 44.0733C28.3379 42.0232 27.7551 40.5588 26.5925 39.5352C25.4269 38.6566 23.8264 38.2188 21.9361 38.2188H12.3333V49.49L21.7911 49.4871ZM49.8716 49.3391C51.0342 50.5106 52.7796 51.0964 55.1079 51.0964C56.7083 51.0964 58.1638 50.6586 59.3264 49.9279C60.492 49.0492 61.2198 48.1706 61.5097 47.292H68.6393C67.4737 50.8035 65.7283 53.2915 63.403 54.9008C61.0719 56.3652 58.3088 57.2438 54.9629 57.2438C52.8221 57.2504 50.6994 56.853 48.706 56.0723C46.9123 55.3997 45.3127 54.294 44.0496 52.8536C42.6985 51.5063 41.6998 49.8472 41.1416 48.0227C40.4138 46.1205 40.1209 44.0733 40.1209 41.7303C40.1209 39.5352 40.4138 37.4881 41.1416 35.5829C41.8422 33.7488 42.8785 32.0613 44.1975 30.607C45.5051 29.2905 47.1056 28.122 48.851 27.3883C50.7937 26.6075 52.8691 26.2097 54.9629 26.2168C57.4361 26.2168 59.6193 26.6576 61.5097 27.6812C63.403 28.7048 64.8556 29.8763 66.0182 31.6335C67.1838 33.2429 68.0594 35.1451 68.6393 37.1952C68.9292 39.2424 69.0741 41.2925 68.9292 43.6325H47.8333C47.8333 45.9755 48.706 48.1706 49.8716 49.3421M59.0365 33.9765C58.0189 32.9529 56.4184 32.3672 54.5251 32.3672C53.4149 32.3505 52.3171 32.6012 51.3241 33.0979C50.4514 33.5387 49.8716 34.1244 49.2888 34.7102C48.7533 35.276 48.3989 35.9888 48.2711 36.7574C48.1232 37.491 47.9783 38.0738 47.9783 38.6596H61.0719C60.7819 36.4645 60.0542 35.0031 59.0365 33.9765ZM46.2329 18.608H62.5274V22.5603H46.2358L46.2329 18.608Z" fill="#C2BEBE"/>
</svg>
