<svg width="71" height="71" viewBox="0 0 71 71" fill="none" xmlns="http://www.w3.org/2000/svg">
<path d="M56.2083 8.875C57.7775 8.875 59.2825 9.49836 60.392 10.608C61.5016 11.7175 62.125 13.2225 62.125 14.7917V56.2083C62.125 57.7775 61.5016 59.2825 60.392 60.392C59.2825 61.5016 57.7775 62.125 56.2083 62.125H14.7917C13.2225 62.125 11.7175 61.5016 10.608 60.392C9.49836 59.2825 8.875 57.7775 8.875 56.2083V14.7917C8.875 13.2225 9.49836 11.7175 10.608 10.608C11.7175 9.49836 13.2225 8.875 14.7917 8.875H56.2083ZM54.7292 54.7292V39.05C54.7292 36.4922 53.7131 34.0392 51.9045 32.2305C50.0958 30.4219 47.6428 29.4058 45.085 29.4058C42.5704 29.4058 39.6417 30.9442 38.2217 33.2517V29.9679H29.9679V54.7292H38.2217V40.1446C38.2217 37.8667 40.0558 36.0029 42.3338 36.0029C43.4322 36.0029 44.4856 36.4393 45.2623 37.216C46.0391 37.9927 46.4754 39.0461 46.4754 40.1446V54.7292H54.7292ZM20.3533 25.3233C21.6715 25.3233 22.9356 24.7997 23.8677 23.8677C24.7997 22.9356 25.3233 21.6715 25.3233 20.3533C25.3233 17.6021 23.1046 15.3538 20.3533 15.3538C19.0274 15.3538 17.7557 15.8805 16.8181 16.8181C15.8805 17.7557 15.3538 19.0274 15.3538 20.3533C15.3538 23.1046 17.6021 25.3233 20.3533 25.3233ZM24.4654 54.7292V29.9679H16.2708V54.7292H24.4654Z" fill="#C2BEBE"/>
</svg>
