<svg width="490" height="87" viewBox="0 0 490 87" fill="none" xmlns="http://www.w3.org/2000/svg">
<path d="M56.6183 85.5337V49.7317H17.2261V85.5337H0V0H17.2261V34.9466H56.6183V0H73.8444V85.5337H56.6183Z" fill="#FF5B28"/>
<path d="M115.786 87C99.4461 87 87.0332 77.1025 87.0332 60.2402V22.6053H103.499V59.2626C103.499 68.6713 108.693 72.948 115.786 72.948C123.005 72.948 128.072 68.6713 128.072 59.2626V22.6053H144.538V60.2402C144.538 77.1025 132.252 87 115.786 87Z" fill="#FF5B28"/>
<path d="M185.703 73.559C193.429 73.559 199.002 70.1376 202.422 61.5843L216.228 66.4719C211.162 80.6461 199.635 87 186.336 87C167.083 87 153.657 73.8034 153.657 54.0084C153.657 34.4579 166.83 21.139 185.576 21.139C203.689 21.139 216.355 34.3357 216.355 53.8862C216.355 54.986 216.355 56.4523 216.228 57.552H170.25C171.263 68.5492 177.343 73.559 185.703 73.559ZM185.576 33.8469C177.596 33.8469 172.53 38.1236 170.756 46.7992H199.762C197.989 37.8792 192.669 33.8469 185.576 33.8469Z" fill="#FF5B28"/>
<path d="M217.282 22.6053H235.142L250.848 64.1503L266.554 22.6053H284.033L258.448 85.5337H242.995L217.282 22.6053Z" fill="#FF5B28"/>
<path d="M388.116 87C374.183 87 361.77 80.5239 358.223 66.1053L371.396 61.9508C373.296 70.2598 379.883 74.2921 388.116 74.2921C395.462 74.2921 400.022 71.9705 400.022 68.1826C400.022 64.5169 396.475 62.9284 388.496 60.9733L382.036 59.507C366.963 55.9635 360.63 49.8539 360.63 39.9565C360.63 28.7149 370.889 21.139 386.722 21.139C401.922 21.139 413.195 28.8371 414.968 41.4227L401.415 44.8441C400.022 37.1461 394.069 33.9691 386.722 33.9691C380.263 33.9691 376.083 36.4129 376.083 39.5899C376.083 43.6222 380.896 44.9663 388.622 46.7992L394.955 48.3876C408.762 51.5646 415.601 57.9185 415.601 67.4494C415.601 79.0576 404.708 87 388.116 87Z" fill="#FF5B28"/>
<path d="M430.84 63.6615V35.191H418.933V22.6053H430.84V10.5084L447.179 1.83286V22.6053H461.745V35.191H447.179V62.9284C447.179 68.9157 449.586 71.9705 454.779 71.9705H461.745V85.5337H452.752C438.819 85.5337 430.84 77.1025 430.84 63.6615Z" fill="#FF5B28"/>
<path d="M479.234 87C472.774 87 468.341 82.4789 468.341 76.3694C468.341 70.1376 472.774 65.7388 479.234 65.7388C485.567 65.7388 490 70.1376 490 76.3694C490 82.4789 485.567 87 479.234 87Z" fill="#C2BEBE"/>
<path fill-rule="evenodd" clip-rule="evenodd" d="M300.713 80.2278C315.925 88.9039 335.545 84.0452 344.535 69.3756C353.525 54.706 356.183 23.2131 340.971 14.537C325.759 5.86094 298.437 23.287 289.447 37.9567C280.457 52.6263 285.5 71.5517 300.713 80.2278ZM317.424 70.2813C326.438 70.2813 333.745 62.1548 333.745 52.1302C333.745 42.1055 326.438 33.979 317.424 33.979C308.409 33.979 301.102 42.1055 301.102 52.1302C301.102 62.1548 308.409 70.2813 317.424 70.2813Z" fill="#FF5B28"/>
</svg>
