<svg width="72" height="71" fill="none" xmlns="http://www.w3.org/2000/svg"><path d="M22.519 15.827c1.89 0 3.639.148 5.236.586 1.6.293 2.911.878 4.074 1.61 1.165.73 2.038 1.756 2.618 3.073.583 1.316.875 2.929.875 4.683 0 2.05-.437 3.804-1.455 5.12-.873 1.32-2.328 2.489-4.074 3.367 2.474.734 4.364 2.05 5.53 3.805 1.162 1.757 1.89 3.952 1.89 6.44 0 2.05-.438 3.805-1.166 5.269a9.687 9.687 0 0 1-3.2 3.66 15.024 15.024 0 0 1-4.654 2.047c-1.745.44-3.49.733-5.236.733H3.458V15.827h19.06Zm-1.166 16.39c1.6 0 2.911-.438 3.929-1.17 1.018-.73 1.455-2.05 1.455-3.659 0-.878-.147-1.757-.437-2.34-.29-.585-.728-1.026-1.308-1.464a7.143 7.143 0 0 0-1.893-.73c-.728-.149-1.453-.149-2.329-.149h-8.437v9.514l9.02-.003Zm.438 17.27c.873 0 1.745-.148 2.473-.293.728-.148 1.456-.438 2.036-.878a5.208 5.208 0 0 0 1.455-1.61c.29-.73.583-1.61.583-2.633 0-2.05-.583-3.514-1.745-4.538-1.166-.878-2.767-1.316-4.657-1.316h-9.603V49.49l9.458-.003Zm28.08-.148c1.163 1.172 2.909 1.757 5.237 1.757 1.6 0 3.056-.437 4.218-1.168 1.166-.879 1.894-1.757 2.184-2.636h7.13c-1.166 3.511-2.912 6-5.237 7.609-2.331 1.464-5.094 2.343-8.44 2.343-2.14.006-4.264-.391-6.257-1.172a11.619 11.619 0 0 1-4.656-3.218 11.626 11.626 0 0 1-2.908-4.831c-.728-1.903-1.021-3.95-1.021-6.293 0-2.195.293-4.242 1.02-6.147a15.798 15.798 0 0 1 3.056-4.976c1.308-1.316 2.909-2.485 4.654-3.219a16.242 16.242 0 0 1 6.112-1.171c2.473 0 4.656.44 6.547 1.464 1.893 1.024 3.346 2.195 4.508 3.953 1.166 1.609 2.041 3.511 2.621 5.561.29 2.047.435 4.097.29 6.438H47.833c0 2.342.873 4.538 2.039 5.71m9.164-15.367c-1.017-1.023-2.618-1.609-4.51-1.609a6.922 6.922 0 0 0-3.202.73c-.873.442-1.452 1.027-2.035 1.613a3.912 3.912 0 0 0-1.018 2.047c-.148.734-.293 1.317-.293 1.903h13.094c-.29-2.195-1.018-3.657-2.036-4.683ZM46.233 18.608h16.294v3.952H46.236l-.003-3.952Z" fill="#C2BEBE"/></svg>