<svg width="2759" height="3266" fill="none" xmlns="http://www.w3.org/2000/svg"><g opacity=".6" filter="url('#filter0_f_441_1493')"><path d="M2206.6 1159.02c-167.84 181.83-451.35 193.12-633.25 25.22-181.89-167.9-193.29-451.41-25.46-633.238 167.84-181.829 595.14-348.893 777.04-180.994 181.89 167.898 49.51 607.18-118.33 789.012Z" fill="url('#paint0_radial_441_1493')" fill-opacity=".6"/></g><g opacity=".6" filter="url('#filter1_f_441_1493')"><path d="M957.321 1717.08c68.989 177.31-18.881 376.99-196.251 445.99-177.371 69.01-377.081-18.78-446.065-196.08-68.984-177.31-40.218-528.88 137.153-597.89 177.371-69.01 436.179 170.68 505.163 347.98Z" fill="url('#paint1_radial_441_1493')" fill-opacity=".5"/></g><g opacity=".6" filter="url('#filter2_f_441_1493')"><path d="M2459.46 2668.01c-41.57 207.48-243.52 341.97-451.08 300.39-207.56-41.59-342.13-243.49-300.56-450.98 41.57-207.48 279.14-519.72 486.7-478.14 207.56 41.59 306.51 421.24 264.94 628.73Z" fill="url('#paint2_radial_441_1493')" fill-opacity=".7"/></g><defs><radialGradient id="paint0_radial_441_1493" cx="0" cy="0" r="1" gradientUnits="userSpaceOnUse" gradientTransform="rotate(148.535 866.032 662.533) scale(821.744 664.782)"><stop stop-color="#FF5A26"/><stop offset="1" stop-color="#FF5A26" stop-opacity="0"/></radialGradient><radialGradient id="paint1_radial_441_1493" cx="0" cy="0" r="1" gradientUnits="userSpaceOnUse" gradientTransform="rotate(84.567 -667.185 1215.507) scale(631.802 511.121)"><stop stop-color="#FF5A26"/><stop offset="1" stop-color="#FF5A26" stop-opacity="0"/></radialGradient><radialGradient id="paint2_radial_441_1493" cx="0" cy="0" r="1" gradientUnits="userSpaceOnUse" gradientTransform="matrix(-320.71905 625.2592 -505.82736 -259.45795 2101.79 2502.1)"><stop stop-color="#FF5A26"/><stop offset="1" stop-color="#FF5A26" stop-opacity="0"/></radialGradient><filter id="filter0_f_441_1493" x="1129.11" y=".637" width="1583.32" height="1602.5" filterUnits="userSpaceOnUse" color-interpolation-filters="sRGB"><feFlood flood-opacity="0" result="BackgroundImageFix"/><feBlend in="SourceGraphic" in2="BackgroundImageFix" result="shape"/><feGaussianBlur stdDeviation="150" result="effect1_foregroundBlur_441_1493"/></filter><filter id="filter1_f_441_1493" x=".466" y="1076.95" width="1260.38" height="1389.68" filterUnits="userSpaceOnUse" color-interpolation-filters="sRGB"><feFlood flood-opacity="0" result="BackgroundImageFix"/><feBlend in="SourceGraphic" in2="BackgroundImageFix" result="shape"/><feGaussianBlur stdDeviation="140" result="effect1_foregroundBlur_441_1493"/></filter><filter id="filter2_f_441_1493" x="1410.28" y="1745.52" width="1348.51" height="1520.42" filterUnits="userSpaceOnUse" color-interpolation-filters="sRGB"><feFlood flood-opacity="0" result="BackgroundImageFix"/><feBlend in="SourceGraphic" in2="BackgroundImageFix" result="shape"/><feGaussianBlur stdDeviation="145" result="effect1_foregroundBlur_441_1493"/></filter></defs></svg>