<svg width="34" height="34" fill="none" xmlns="http://www.w3.org/2000/svg"><path d="M.421 4.239A3.667 3.667 0 0 1 4.088.572h25.666a3.667 3.667 0 0 1 3.667 3.667v25.666a3.667 3.667 0 0 1-3.666 3.667H4.087A3.667 3.667 0 0 1 .42 29.905V4.24Z" fill="#03A9F4"/><path d="M13.27 12.648h-1.836v4.065h1.809c.501 0 .889-.165 1.164-.493.275-.328.411-.805.411-1.432 0-.651-.14-1.168-.42-1.553a1.351 1.351 0 0 0-1.129-.587Z" fill="#020F16"/><path d="M3.171 3.322v27.5h27.5v-27.5h-27.5ZM16.34 17.795c-.757.74-1.808 1.11-3.15 1.11h-1.755v4.584H8.802V10.454h4.44c1.29 0 2.318.401 3.084 1.2.767.8 1.15 1.838 1.15 3.115 0 1.277-.379 2.286-1.137 3.026Zm8.54 5.085c-.65.525-1.504.787-2.56.787-.71 0-1.337-.138-1.88-.416a3.164 3.164 0 0 1-1.276-1.16 2.986 2.986 0 0 1-.46-1.602h2.407c.013.441.115.773.31.994.194.22.51.33.953.33.68 0 1.02-.306 1.02-.921 0-.215-.103-.414-.31-.595-.205-.182-.662-.427-1.372-.738-1.044-.424-1.762-.862-2.153-1.317-.392-.454-.587-1.017-.587-1.692 0-.848.306-1.547.917-2.099.612-.552 1.423-.828 2.43-.828 1.062 0 1.913.275 2.552.824.639.548.957 1.286.957 2.21h-2.533c0-.787-.327-1.181-.985-1.181a.918.918 0 0 0-.662.25c-.175.167-.26.4-.26.699 0 .214.096.404.287.568.192.164.64.399 1.352.703 1.033.382 1.762.808 2.19 1.276.426.469.639 1.076.639 1.822 0 .866-.325 1.56-.975 2.086Z" fill="#020F16"/></svg>