<svg width="34" height="34" fill="none" xmlns="http://www.w3.org/2000/svg"><path d="M.136 4.167A3.667 3.667 0 0 1 3.802.5H29.47a3.667 3.667 0 0 1 3.667 3.667v25.666a3.667 3.667 0 0 1-3.667 3.667H3.802a3.667 3.667 0 0 1-3.666-3.667V4.167Z" fill="#FF5722"/><path d="M2.886 3.25v27.5h27.5V3.25h-27.5Zm13.466 20.167-.698-2.668h-3.59l-.697 2.668H8.583l4.072-13.034h2.409l4.1 13.034h-2.812Zm6.563 0h-2.542V13.73h2.542v9.686Zm-.273-11.226c-.249.257-.583.385-1.008.385-.424 0-.759-.128-1.007-.385-.249-.257-.371-.58-.371-.967 0-.394.125-.716.375-.967s.586-.376 1.003-.376c.417 0 .752.126 1.003.376.251.25.376.573.376.967 0 .388-.124.71-.371.967Z" fill="#1C0802"/><path d="M12.638 18.556h2.435l-1.218-4.646-1.217 4.646Z" fill="#1C0802"/></svg>