<svg width="37" height="36" fill="none" xmlns="http://www.w3.org/2000/svg"><path d="m21.602.5 3.792.023c.071.053.129.087.19.113.687.292 1.432.502 2.052.89 1.795 1.124 3.549 2.309 5.301 3.492.815.549 1.617 1.12 2.368 1.742.558.462.809 1.116.81 1.815l-.001 21.976c-.001.307-.057.622-.147.917-.412 1.344-1.325 2.263-2.762 2.622-.758.189-1.559.248-2.345.309-1.226.096-2.456.143-3.685.212l-2.324.137-3.72.206-2.289.135-3.757.205-1.942.075c-.062.003-.12.085-.18.13-1.477 0-2.954 0-4.444-.022-.072-.053-.126-.096-.19-.113-.9-.245-1.655-.714-2.236-1.395-.804-.94-1.569-1.91-2.342-2.874-.95-1.184-1.926-2.35-2.824-3.567a4.062 4.062 0 0 1-.81-2.427C.114 18.61.115 12.12.119 5.629c0-.187.035-.376.07-.562.36-1.998 1.93-3.064 3.799-3.262.97-.102 1.946-.148 2.92-.21l2.576-.14 1.107-.067 3.34-.272L15.78.98l3.066-.206 2.575-.143c.063-.004.121-.085.18-.131ZM6.996 31.654c.154.189.326.368.461.57.655.964 1.593 1.314 2.785 1.24l8.074-.454 9.087-.517 4.524-.274c1.341-.102 1.989-.784 2.015-2.051v-.273l.01-20.744c.001-.625-.228-1.062-.759-1.411L26.8 3.496c-1.03-.705-2.121-1.034-3.386-.94l-7.161.499-7.488.52-4.7.345c-.95.082-1.538.629-1.708 1.506-.042.224-.062.451-.06.678l-.02 18.113c-.006 1.187.38 2.174 1.134 3.082l3.586 4.355Z" fill="#fff"/><path d="m7.042 31.533-3.55-4.306c-.75-.902-1.133-1.882-1.127-3.06l.02-17.985c0-.225.018-.453.06-.674.169-.87.754-1.414 1.698-1.495l4.674-.343 7.447-.516 7.12-.496c1.259-.093 2.345.234 3.367.934 2.097 1.435 4.233 2.819 6.36 4.213.528.347.755.781.754 1.401l-.01 20.6v.27c-.026 1.257-.67 1.935-2.003 2.036-1.498.113-2.999.187-4.5.272l-9.036.514-8.03.45c-1.185.074-2.118-.274-2.768-1.232-.135-.2-.306-.378-.476-.583Zm1.85-12.488v9.093l.002 1.696c.015.76.412 1.139 1.22 1.182.203.01.408.004.612-.007l6.77-.375 12.925-.695c.805-.043 1.177-.375 1.253-1.125.014-.135.01-.272.01-.408V10.9c0-.102.004-.204-.002-.305-.049-.697-.367-.981-1.103-.944l-6.662.36-9.36.516-4.68.264c-.596.036-.866.278-.956.826-.021.146-.03.292-.028.44l-.002 6.988ZM25.398 4.73c-.565-.289-1.178-.384-1.81-.352-.971.05-1.942.126-2.913.192L6.83 5.516c-.419.028-.84.057-1.252.127-.139.023-.314.155-.357.274-.031.083.109.252.211.344.19.17.408.314.615.468.49.364 1.013.696 1.463 1.098.854.762 1.847.938 2.986.86l8.96-.527 9.648-.545c.087-.004.176-.03.37-.063-.178-.173-.28-.306-.414-.399-.473-.328-.95-.65-1.432-.967-.74-.49-1.483-.976-2.23-1.456Z" fill="#000"/><path d="m9.009 18.985.001-7.086c0-.15.005-.3.028-.447.09-.559.357-.805.948-.842l4.641-.269 9.284-.525 6.606-.368c.73-.037 1.046.253 1.094.962.007.104.003.208.003.311v17.834l-.01.415c-.075.765-.445 1.103-1.244 1.146l-12.819.708-6.712.382-.607.008c-.803-.044-1.195-.43-1.21-1.203l-.003-1.73v-9.296Zm13.105.018L18.43 13.58c-.13-.189-.255-.252-.492-.227l-1.571.103-2.89.204c-.71.063-1.14.708-.943 1.377l1.53.126v11.975l-1.041.284c-.463.131-.66.508-.505.988l3.524-.195 1.389-.11c.598-.095.92-.45 1-1.028l-1.926-.424v-9.007l.143.194 4.43 6.68c.65.975 1.319 1.94 2.005 2.893.489.678 1.21.885 2.019.716.507-.104.993-.303 1.49-.458.259-.08.347-.23.346-.51l-.009-12.308c0-.72 0-.72.737-.863.745-.145.932-.433.761-1.202l-4.452.262c-.485.033-.852.424-.925.88-.036.219.01.34.282.355l1.348.143v8.348c-.854-1.258-1.709-2.516-2.566-3.772v-.001Zm3.29-14.556c.732.488 1.46.978 2.188 1.472.477.322.95.65 1.42.985.132.095.234.23.41.406l-.367.065-9.567.554-8.888.539c-1.128.078-2.114-.101-2.96-.878-.447-.41-.965-.747-1.452-1.118-.204-.157-.421-.303-.61-.477-.1-.094-.24-.265-.208-.35.042-.122.217-.256.353-.28.41-.07.827-.1 1.242-.13l13.73-.963 2.89-.194c.626-.034 1.235.063 1.82.37Z" fill="#fff"/><path d="m22.069 18.915 2.627 3.774v-8.397l-1.388-.144c-.28-.015-.329-.137-.292-.357.076-.458.454-.852.953-.885l4.586-.263c.175.773-.017 1.063-.784 1.208-.76.144-.76.144-.76.868l.01 12.382c0 .281-.09.431-.356.513l-1.535.46c-.834.169-1.576-.039-2.08-.72-.705-.959-1.394-1.93-2.065-2.91l-4.563-6.72c-.032-.048-.069-.093-.147-.195v9.06l1.985.427c-.083.582-.415.938-1.031 1.034-.47.072-.953.083-1.43.11l-3.63.197c-.16-.483.044-.862.52-.994l1.073-.286V15.032l-1.576-.127c-.202-.673.24-1.322.971-1.385.99-.087 1.985-.14 2.976-.205.54-.035 1.081-.048 1.618-.104.244-.025.375.038.507.228l3.81 5.476Z" fill="#000"/></svg>