<svg width="71" height="71" fill="none" xmlns="http://www.w3.org/2000/svg"><path d="M56.208 8.875a5.916 5.916 0 0 1 5.917 5.917v41.416a5.916 5.916 0 0 1-5.917 5.917H14.792a5.916 5.916 0 0 1-5.917-5.917V14.792a5.916 5.916 0 0 1 5.917-5.917h41.416ZM54.73 54.729V39.05a9.644 9.644 0 0 0-9.644-9.644c-2.515 0-5.443 1.538-6.863 3.846v-3.284h-8.254v24.761h8.254V40.145c0-2.278 1.834-4.142 4.112-4.142a4.142 4.142 0 0 1 4.141 4.142v14.584h8.254ZM20.353 25.323a4.97 4.97 0 0 0 4.97-4.97c0-2.75-2.218-5-4.97-5a5 5 0 0 0-5 5c0 2.752 2.25 4.97 5 4.97Zm4.112 29.406V29.968h-8.194v24.761h8.194Z" fill="#C2BEBE"/></svg>