<svg width="490" height="87" fill="none" xmlns="http://www.w3.org/2000/svg"><path d="M56.618 85.534V49.732H17.226v35.802H0V0h17.226v34.947h39.392V0h17.226v85.534H56.618ZM115.786 87c-16.34 0-28.753-9.897-28.753-26.76V22.605H103.5v36.658c0 9.408 5.194 13.685 12.287 13.685 7.219 0 12.286-4.277 12.286-13.685V22.605h16.466V60.24c0 16.863-12.286 26.76-28.752 26.76ZM185.703 73.559c7.726 0 13.299-3.421 16.719-11.975l13.806 4.888C211.162 80.646 199.635 87 186.336 87c-19.253 0-32.679-13.197-32.679-32.992 0-19.55 13.173-32.869 31.919-32.869 18.113 0 30.779 13.197 30.779 32.747 0 1.1 0 2.566-.127 3.666H170.25c1.013 10.997 7.093 16.007 15.453 16.007Zm-.127-39.712c-7.98 0-13.046 4.277-14.82 12.952h29.006c-1.773-8.92-7.093-12.952-14.186-12.952ZM217.282 22.605h17.86l15.706 41.545 15.706-41.545h17.479l-25.585 62.929h-15.453l-25.713-62.929ZM388.116 87c-13.933 0-26.346-6.476-29.893-20.895l13.173-4.154c1.9 8.309 8.487 12.341 16.72 12.341 7.346 0 11.906-2.322 11.906-6.11 0-3.665-3.547-5.254-11.526-7.209l-6.46-1.466c-15.073-3.543-21.406-9.653-21.406-19.55 0-11.242 10.259-18.818 26.092-18.818 15.2 0 26.473 7.698 28.246 20.284l-13.553 3.421c-1.393-7.698-7.346-10.875-14.693-10.875-6.459 0-10.639 2.444-10.639 5.62 0 4.033 4.813 5.377 12.539 7.21l6.333 1.589c13.807 3.177 20.646 9.53 20.646 19.061 0 11.609-10.893 19.551-27.485 19.551ZM430.84 63.661v-28.47h-11.907V22.605h11.907V10.508l16.339-8.675v20.772h14.566v12.586h-14.566v27.737c0 5.988 2.407 9.043 7.6 9.043h6.966v13.563h-8.993c-13.933 0-21.912-8.431-21.912-21.873Z" fill="#FF5B28"/><path d="M479.234 87c-6.46 0-10.893-4.521-10.893-10.63 0-6.232 4.433-10.631 10.893-10.631 6.333 0 10.766 4.399 10.766 10.63C490 82.48 485.567 87 479.234 87Z" fill="#C2BEBE"/><path fill-rule="evenodd" clip-rule="evenodd" d="M300.713 80.228c15.212 8.676 34.832 3.817 43.822-10.852 8.99-14.67 11.648-46.163-3.564-54.839-15.212-8.676-42.534 8.75-51.524 23.42-8.99 14.67-3.947 33.595 11.266 42.27Zm16.711-9.947c9.014 0 16.321-8.126 16.321-18.15 0-10.026-7.307-18.152-16.321-18.152-9.015 0-16.322 8.127-16.322 18.151 0 10.025 7.307 18.151 16.322 18.151Z" fill="#FF5B28"/></svg>