<svg width="16" height="15" fill="none" xmlns="http://www.w3.org/2000/svg"><path d="M3.574 2.655c-.092-.15.107-.308.233-.185l3.4 3.346.537-5.043c.013-.117.181-.12.199-.004l.756 5.017 3.252-3.479c.12-.129.326.02.241.175l-2.268 4.12L15.07 5.54c.116-.024.17.138.063.189l-4.718 2.223 4.422 1.87c.163.07.092.316-.083.287L9.983 9.32l2.651 4.368c.062.1-.071.206-.155.123l-3.685-3.627-.497 4.656c-.019.175-.271.18-.298.007l-.698-4.633-3.525 3.77c-.08.087-.218-.012-.161-.116l2.46-4.47-4.733.977c-.174.036-.255-.207-.095-.283l4.338-2.044-4.81-2.034c-.108-.047-.061-.21.056-.191l5.186.857-2.443-4.025Z" fill="#C2BEBE"/></svg>