<svg width="16" height="15" fill="none" xmlns="http://www.w3.org/2000/svg"><path d="M3.949 3.273c-.274-.451-.411-.677-.39-.743a.15.15 0 0 1 .13-.102c.069-.006.257.179.634.55l2.883 2.838.489-4.58c.036-.339.054-.509.092-.535A.1.1 0 0 1 7.897.7c.039.024.064.193.115.531L8.7 5.786l2.76-2.952c.36-.385.54-.577.61-.574a.15.15 0 0 1 .132.096c.025.065-.102.296-.356.757l-1.92 3.49 4.651-.961c.36-.074.54-.111.576-.082a.1.1 0 0 1 .035.104c-.012.045-.178.123-.51.28l-4.262 2.008 3.724 1.575c.508.215.762.323.783.39a.15.15 0 0 1-.046.158c-.053.045-.326 0-.87-.09L9.983 9.32l2.401 3.956c.183.301.274.452.26.496a.1.1 0 0 1-.086.068c-.046.004-.172-.12-.423-.367l-3.341-3.289-.423 3.96c-.054.51-.081.765-.139.804a.15.15 0 0 1-.163.004c-.06-.037-.097-.29-.174-.797l-.594-3.941-3.197 3.42c-.24.256-.36.385-.406.383a.1.1 0 0 1-.089-.065c-.016-.043.068-.197.237-.504l2.23-4.05-3.994.824c-.54.111-.809.167-.864.124a.15.15 0 0 1-.052-.156c.018-.068.267-.185.766-.42l3.653-1.722L1.241 6.21c-.339-.143-.508-.215-.522-.26a.1.1 0 0 1 .03-.104c.036-.03.217 0 .58.06l4.688.774-2.068-3.407Z" fill="#C2BEBE"/></svg>