<svg width="28" height="40" fill="none" xmlns="http://www.w3.org/2000/svg"><path d="M7.125 40c3.736 0 6.75-2.977 6.75-6.667v-6.666h-6.75c-3.736 0-6.75 2.976-6.75 6.666C.375 37.023 3.39 40 7.125 40Z" fill="#0ACF83"/><path d="M.375 20c0-3.69 3.014-6.667 6.75-6.667h6.75v13.334h-6.75C3.39 26.667.375 23.69.375 20Z" fill="#A259FF"/><path d="M.375 6.667C.375 2.977 3.39 0 7.125 0h6.75v13.333h-6.75c-3.736 0-6.75-2.976-6.75-6.666Z" fill="#F24E1E"/><path d="M13.876 0h6.75c3.735 0 6.75 2.977 6.75 6.667s-3.015 6.666-6.75 6.666h-6.75V0Z" fill="#FF7262"/><path d="M27.375 20c0 3.69-3.014 6.667-6.75 6.667s-6.75-2.977-6.75-6.667 3.014-6.667 6.75-6.667 6.75 2.977 6.75 6.667Z" fill="#1ABCFE"/></svg>