<svg width="41" height="41" fill="none" xmlns="http://www.w3.org/2000/svg"><path d="M18.924.072c-4.354 0-8.082 2.64-9.584 6.35-3.143.405-5.95 2.18-7.566 4.89-2.176 3.65-1.68 8.095.884 11.209a9.69 9.69 0 0 0 .59 8.789c2.177 3.651 6.405 5.457 10.474 4.862 1.935 2.43 4.924 3.9 8.156 3.9 4.353 0 8.081-2.64 9.584-6.35 3.142-.406 5.95-2.18 7.566-4.891 2.176-3.65 1.68-8.094-.885-11.208a9.69 9.69 0 0 0-.59-8.79c-2.176-3.65-6.404-5.457-10.474-4.86C25.145 1.54 22.155.071 18.924.071Zm0 3.077c1.837 0 3.56.7 4.863 1.887-.1.051-.203.092-.301.147L16.43 9.128a2.294 2.294 0 0 0-1.191 1.99l-.044 9.18-3.392-1.918v-8.338c0-3.8 3.195-6.893 7.12-6.893Zm10.204 3.795c2.28.157 4.446 1.372 5.673 3.428a6.68 6.68 0 0 1 .745 5.021c-.097-.058-.186-.124-.286-.18l-7.057-3.945a2.453 2.453 0 0 0-2.374-.003l-8.23 4.555.018-3.801 7.458-4.17a7.266 7.266 0 0 1 4.053-.905ZM8.642 9.714c-.004.11-.016.217-.016.328v7.888c0 .821.45 1.58 1.183 1.995l8.19 4.624-3.408 1.884-7.46-4.168c-3.4-1.9-4.567-6.126-2.604-9.417.917-1.539 2.402-2.634 4.115-3.134Zm17.568 3.997 7.461 4.167c3.399 1.9 4.566 6.127 2.604 9.418-.918 1.538-2.403 2.634-4.115 3.134.004-.11.015-.218.015-.328v-7.888c0-.821-.45-1.581-1.182-1.995l-8.19-4.624 3.407-1.884Zm-5.794 3.203 2.815 1.59-.015 3.16-2.83 1.566-2.816-1.593.016-3.158 2.83-1.565Zm5.19 2.932 3.391 1.918v8.338c0 3.8-3.194 6.893-7.119 6.893a7.22 7.22 0 0 1-4.863-1.887c.1-.052.203-.092.3-.147l7.055-3.946a2.294 2.294 0 0 0 1.192-1.989l.043-9.18Zm-2.403 4.478-.018 3.8-7.458 4.171c-3.399 1.9-7.764.767-9.726-2.524a6.68 6.68 0 0 1-.745-5.02c.097.058.186.124.285.18l7.058 3.945c.734.41 1.638.41 2.374.003l8.23-4.555Z" fill="#F7F2F0"/></svg>